<svg xmlns="http://www.w3.org/2000/svg" width="64" height="64" viewBox="0 0 64 64" aria-hidden="true"><path d="M32.09 61.568c16.185 0 29.586-13.43 29.586-29.587 0-16.186-13.43-29.587-29.616-29.587-16.157 0-29.558 13.4-29.558 29.587 0 16.156 13.43 29.587 29.587 29.587zm0-4.932c-13.692 0-24.628-10.964-24.628-24.655 0-13.692 10.907-24.656 24.598-24.656 13.691 0 24.656 10.964 24.685 24.656.03 13.69-10.965 24.655-24.656 24.655zm-.03-25.555c4.12.03 7.455-3.48 7.455-8.121 0-4.351-3.336-7.977-7.455-7.977s-7.455 3.626-7.455 7.977c0 4.64 3.336 8.092 7.455 8.121zM18.804 46.687h26.512c1.16 0 1.712-.754 1.712-1.827 0-3.162-4.786-11.4-14.968-11.4-10.181 0-14.967 8.238-14.967 11.4 0 1.073.55 1.827 1.711 1.827z" fill="#0170c9"></path></svg>