<svg xmlns="http://www.w3.org/2000/svg" width="64" height="64" viewBox="0 0 64 64" aria-hidden="true"><path d="M58.595 42c1.544 0 2.405.866 2.405 2.45v7.29c0 6.153-3.087 9.26-9.322 9.26h-7.244C42.861 61 42 60.134 42 58.61c0-1.554.86-2.42 2.434-2.42h7.185c2.91 0 4.6-1.582 4.6-4.69v-7.05c0-1.584.833-2.45 2.376-2.45zm-53.22 0c1.543 0 2.404.866 2.404 2.45v7.05c0 3.108 1.633 4.69 4.601 4.69h7.186c1.573 0 2.434.866 2.434 2.42 0 1.524-.86 2.39-2.434 2.39h-7.244C6.117 61 3 57.922 3 51.74v-7.29C3 42.866 3.83 42 5.375 42zM32 34C42.897 34 48 42.988 48 46.399c0 .949-.48 1.601-1.501 1.601H17.501C16.481 48 16 47.348 16 46.399 16 42.988 21.103 34 32 34zM32 14c4.438 0 8 3.82 8 8.412 0 4.916-3.562 8.618-8 8.588-4.437-.029-8-3.672-8-8.588C24 17.82 27.563 14 32 14zM51.678 3C57.913 3 61 6.076 61 12.231v7.32C61 21.103 60.168 22 58.595 22c-1.514 0-2.375-.896-2.375-2.45V12.5c0-3.108-1.692-4.691-4.601-4.691h-7.185c-1.573 0-2.434-.866-2.434-2.42C42 3.837 42.86 3 44.434 3h7.244zM19.566 3C21.139 3 22 3.836 22 5.39c0 1.553-.86 2.419-2.434 2.419H12.38c-2.968 0-4.601 1.583-4.601 4.69v7.051c0 1.554-.83 2.45-2.404 2.45C3.86 22 3 21.104 3 19.55v-7.319C3 6.076 6.117 3 12.322 3h7.244z" fill="#0170c9"></path></svg>